<?xml version="1.0" encoding="UTF-8"?>
<svg width="815px" height="481px" viewBox="0 0 815 481" version="1.1" xmlns="http://www.w3.org/2000/svg" xmlns:xlink="http://www.w3.org/1999/xlink">
    <!-- Generator: Sketch 47.1 (45422) - http://www.bohemiancoding.com/sketch -->
    <title>patterns</title>
    <desc>Created with Sketch.</desc>
    <defs></defs>
    <g id="Page-1" stroke="none" stroke-width="1" fill="none" fill-rule="evenodd">
        <g id="App-page---rewards" transform="translate(-299.000000, -1241.000000)">
            <g id="patterns" transform="translate(295.000000, 1205.000000)">
                <circle id="Oval-2" fill="#C2A661" opacity="0.340000004" cx="290" cy="186" r="150"></circle>
                <circle id="Oval-2" fill="#ECEAE8" cx="516" cy="297" r="220"></circle>
                <circle id="Oval-2" fill="#F2F0E6" cx="43" cy="77" r="20"></circle>
                <path d="M16.2671928,125.986088 L10.0697198,129.244293 L10.0697198,129.244293 C9.58087524,129.501293 8.97624809,129.313347 8.71924728,128.824502 C8.61690821,128.629842 8.58159353,128.406874 8.61877038,128.190116 L9.80238239,121.289128 L4.78852144,116.401822 L4.78852144,116.401822 C4.39303786,116.016321 4.38494556,115.383207 4.77044677,114.987724 C4.92395537,114.83024 5.12509778,114.727753 5.34273481,114.696129 L12.2717202,113.689288 L15.3704567,107.410562 L15.3704567,107.410562 C15.614879,106.915308 16.2145048,106.711969 16.7097585,106.956392 C16.9069711,107.053722 17.0665986,107.21335 17.1639289,107.410562 L20.2626654,113.689288 L27.1916508,114.696129 L27.1916508,114.696129 C27.7381956,114.775546 28.1168771,115.282989 28.0374595,115.829534 C28.005835,116.047171 27.9033478,116.248313 27.7458642,116.401822 L22.7320032,121.289128 L23.9156152,128.190116 L23.9156152,128.190116 C24.0089762,128.734452 23.6433884,129.251408 23.0990519,129.344769 C22.8822943,129.381946 22.6593262,129.346632 22.4646658,129.244293 L16.2671928,125.986088 Z" id="Star" fill="#C2A661" opacity="0.340174366" transform="translate(16.267258, 118.106134) rotate(-32.000000) translate(-16.267258, -118.106134) "></path>
                <path d="M806.78066,126.133183 L800.583187,129.391388 L800.583187,129.391388 C800.094343,129.648389 799.489715,129.460442 799.232715,128.971597 C799.130376,128.776937 799.095061,128.553969 799.132238,128.337211 L800.31585,121.436224 L795.301989,116.548917 L795.301989,116.548917 C794.906505,116.163416 794.898413,115.530303 795.283914,115.134819 C795.437423,114.977335 795.638565,114.874848 795.856202,114.843224 L802.785188,113.836383 L805.883924,107.557657 L805.883924,107.557657 C806.128346,107.062404 806.727972,106.859065 807.223226,107.103487 C807.420438,107.200817 807.580066,107.360445 807.677396,107.557657 L810.776133,113.836383 L817.705118,114.843224 L817.705118,114.843224 C818.251663,114.922641 818.630344,115.430084 818.550927,115.976629 C818.519302,116.194266 818.416815,116.395409 818.259332,116.548917 L813.245471,121.436224 L814.429083,128.337211 L814.429083,128.337211 C814.522444,128.881548 814.156856,129.398504 813.612519,129.491865 C813.395762,129.529041 813.172794,129.493727 812.978133,129.391388 L806.78066,126.133183 Z" id="Star" fill="#C2A661" opacity="0.340174366"></path>
            </g>
        </g>
    </g>
</svg>