<?xml version="1.0" encoding="UTF-8" standalone="no"?>
<svg width="24px" height="24px" viewBox="0 0 24 24" version="1.1" xmlns="http://www.w3.org/2000/svg" xmlns:xlink="http://www.w3.org/1999/xlink">
    <!-- Generator: Sketch 43.2 (39069) - http://www.bohemiancoding.com/sketch -->
    <title>Group</title>
    <desc>Created with Sketch.</desc>
    <defs></defs>
    <g id="2.2-Iconography" stroke="none" stroke-width="1" fill="none" fill-rule="evenodd">
        <g id="icon/home_selected">
            <rect id="Bounds" fill="#FF0000" opacity="0" x="0" y="0" width="20.1490767" height="20.1490767"></rect>
            <g id="Group" transform="translate(2.000000, 2.000000)" fill="#00A862">
                <g id="Page-1" transform="translate(0.518635, 0.518635)">
                    <path d="M14.5275655,11.8190428 L19.5890532,7.84377799 C20.246648,7.32715299 20.0992561,6.8790495 19.2599122,6.84275346 L12.7983728,6.56425764 L10.5328658,0.582873167 C10.3858174,0.194132362 10.1927305,0.000101174923 9.99998719,0.000101174923 C9.99998719,0.000101174923 9.71276186,-0.0216086082 9.48085145,0.571000629 C9.24894104,1.16360987 8.87101296,2.15717166 8.87101296,2.15717166 L7.20194515,6.56425764 L0.740405771,6.84275346 C-0.0992816988,6.8790495 -0.246673648,7.32715299 0.410921203,7.84377799 L5.47240885,11.8190428 L3.74424683,17.9724095 C3.51989498,18.7719401 3.90572519,19.049079 4.60660998,18.5911383 L9.99998719,15.0666907 L15.3933644,18.5911383 C16.0942492,19.049079 16.480423,18.7719401 16.2557276,17.9724095 L14.5275655,11.8190428" id="Fill-1"></path>
                </g>
            </g>
        </g>
    </g>
</svg>