<?xml version="1.0" encoding="UTF-8"?>
<svg width="30px" height="20px" viewBox="0 0 30 20" version="1.1" xmlns="http://www.w3.org/2000/svg" xmlns:xlink="http://www.w3.org/1999/xlink">
    <!-- Generator: Sketch 47.1 (45422) - http://www.bohemiancoding.com/sketch -->
    <title>Fill 1</title>
    <desc>Created with Sketch.</desc>
    <defs></defs>
    <g id="Page-1" stroke="none" stroke-width="1" fill="none" fill-rule="evenodd">
        <g id="Group-15" transform="translate(-69.000000, 0.000000)" fill="#00AF66">
            <g id="Group-4">
                <g id="Card/Inactive" transform="translate(69.000000, 0.000000)">
                    <path d="M23.6655254,10.1025166 C21.8619661,10.1025166 20.3995932,8.58515585 20.3995932,6.71312848 C20.3995932,4.84057333 21.8619661,3.32321255 23.6655254,3.32321255 C25.4690847,3.32321255 26.9314576,4.84057333 26.9314576,6.71312848 C26.9314576,8.58515585 25.4690847,10.1025166 23.6655254,10.1025166 M14.8073898,12.1956828 L4.15332203,12.1956828 C3.8019661,12.1956828 3.51772881,11.9001274 3.51772881,11.5359608 C3.51772881,11.1712664 3.8019661,10.8762387 4.15332203,10.8762387 L14.8073898,10.8762387 C15.1587458,10.8762387 15.4429831,11.1712664 15.4429831,11.5359608 C15.4429831,11.9001274 15.1587458,12.1956828 14.8073898,12.1956828 M9.21416949,14.9089878 L4.15332203,14.9089878 C3.8019661,14.9089878 3.51772881,14.6139601 3.51772881,14.2492657 C3.51772881,13.8850991 3.8019661,13.5895436 4.15332203,13.5895436 L9.21416949,13.5895436 C9.56552542,13.5895436 9.84976271,13.8850991 9.84976271,14.2492657 C9.84976271,14.6139601 9.56552542,14.9089878 9.21416949,14.9089878 M26.8602712,-0.00020338983 L2.75450847,-0.00020338983 C1.23569492,-0.00020338983 0.000101694915,1.28282411 0.000101694915,2.85929599 L0.000101694915,16.7562096 C0.000101694915,18.3332093 1.23569492,19.6151812 2.75450847,19.6151812 L26.8602712,19.6151812 C28.3795932,19.6151812 29.6151864,18.3332093 29.6151864,16.7562096 L29.6151864,2.85929599 C29.6151864,1.28282411 28.3795932,-0.00020338983 26.8602712,-0.00020338983" id="Fill-1"></path>
                </g>
            </g>
        </g>
    </g>
</svg>