<?xml version="1.0" encoding="UTF-8"?>
<svg width="23px" height="25px" viewBox="0 0 23 25" version="1.1" xmlns="http://www.w3.org/2000/svg" xmlns:xlink="http://www.w3.org/1999/xlink">
    <!-- Generator: Sketch 46.2 (44496) - http://www.bohemiancoding.com/sketch -->
    <title>Star</title>
    <desc>Created with Sketch.</desc>
    <defs></defs>
    <g id="Page-1" stroke="none" stroke-width="1" fill="none" fill-rule="evenodd" opacity="0.340174366">
        <g id="App-page---msr" transform="translate(-928.000000, -976.000000)" fill="#C2A661">
            <g id="features" transform="translate(519.000000, 731.000000)">
                <g id="Rewards-MSR" transform="translate(0.000000, 241.000000)">
                    <g id="title" transform="translate(285.000000, 0.000000)">
                        <g id="Group-2" transform="translate(119.000000, 0.000000)">
                            <path d="M15.9999475,23.3735351 L9.8024745,26.6317395 L9.8024745,26.6317395 C9.31362991,26.8887403 8.70900275,26.7007938 8.45200195,26.2119492 C8.34966288,26.0172887 8.3143482,25.7943206 8.35152504,25.577563 L9.53513706,18.6765754 L4.52127611,13.7892689 L4.52127611,13.7892689 C4.12579253,13.4037677 4.11770022,12.7706544 4.50320143,12.3751708 C4.65671004,12.2176872 4.85785245,12.1152 5.07548948,12.0835755 L12.0044749,11.076735 L15.1032114,4.79800908 L15.1032114,4.79800908 C15.3476337,4.30275542 15.9472595,4.09941642 16.4425132,4.34383872 C16.6397258,4.44116896 16.7993533,4.60079648 16.8966835,4.79800908 L19.99542,11.076735 L26.9244054,12.0835755 L26.9244054,12.0835755 C27.4709503,12.1629931 27.8496318,12.670436 27.7702141,13.2169808 C27.7385896,13.4346179 27.6361025,13.6357603 27.4786188,13.7892689 L22.4647579,18.6765754 L23.6483699,25.577563 L23.6483699,25.577563 C23.7417309,26.1218994 23.3761431,26.6388554 22.8318066,26.7322164 C22.615049,26.7693932 22.3920809,26.7340785 22.1974204,26.6317395 L15.9999475,23.3735351 Z" id="Star" transform="translate(16.000000, 15.452402) rotate(20.000000) translate(-16.000000, -15.452402) "></path>
                        </g>
                    </g>
                </g>
            </g>
        </g>
    </g>
</svg>