<svg width="28" height="28" xmlns="http://www.w3.org/2000/svg"><g fill="none" fill-rule="evenodd"><path d="M0 0h28v28H0z"/><path d="M6.656 5.88l.183-.794c.093-.41.378-.83.493-.852h13.962c.118.021.401.443.495.852l.183.794H6.656zm16.13.284L22.5 4.92c-.086-.368-.488-1.42-1.203-1.42H7.332c-.716 0-1.118 1.052-1.203 1.42l-.286 1.244a.37.37 0 00.07.311.362.362 0 00.285.138h1.023c0 .01-.004.018-.003.027l1.165 16.42c.048.808.715 1.44 1.518 1.44h8.826c.803 0 1.47-.632 1.518-1.433L21.41 8.478a.364.364 0 10-.727-.06l-1.166 14.598a.796.796 0 01-.791.75H9.901a.797.797 0 01-.791-.754L7.946 6.613H22.43a.364.364 0 00.355-.45zm-5.397 7.464c0 1.642-1.327 2.979-2.957 2.979s-2.957-1.337-2.957-2.98 1.327-2.978 2.957-2.978 2.957 1.335 2.957 2.979zm-6.643 0c0 2.047 1.654 3.713 3.686 3.713s3.686-1.666 3.686-3.713c0-2.048-1.654-3.713-3.686-3.713s-3.686 1.665-3.686 3.713z" fill-opacity=".58" fill="#000"/></g></svg>