<svg width="28" height="28" xmlns="http://www.w3.org/2000/svg"><defs><path id="a" d="M0 0h28v28H0z"/></defs><path d="M8.795 13.602v2.408a.296.296 0 01-.294.297H5.965a.296.296 0 01-.293-.297v-2.408c0-.163.131-.294.293-.294h2.536c.162 0 .294.131.294.294zm-3.88 0v2.408c0 .584.47 1.058 1.05 1.058h2.536c.58 0 1.051-.474 1.051-1.058v-2.408c0-.582-.472-1.057-1.051-1.057H5.966c-.58 0-1.05.475-1.05 1.057zm19.504 2.249a2.836 2.836 0 01-2.824-2.842c0-1.567 1.266-2.842 2.824-2.842a2.837 2.837 0 012.825 2.842 2.836 2.836 0 01-2.825 2.842zm0-6.446c-1.975 0-3.582 1.616-3.582 3.604 0 1.987 1.607 3.604 3.582 3.604 1.975 0 3.581-1.617 3.581-3.604 0-1.988-1.606-3.604-3.581-3.604zm-5.267 12.932H17.58V13.48c0-.694-.56-1.26-1.25-1.26H12.17c-.69 0-1.25.566-1.25 1.26v8.857H3.706V8.794a.38.38 0 00-.027-.136l2.15-.152a.38.38 0 00.351-.406.382.382 0 00-.403-.354l-4.021.283.01-1.298 22.632-1.967-.011 1.297L8.124 7.567a.38.38 0 00-.342.415c.02.209.2.366.412.344L19.152 7.31v15.027zm-7.475 0V13.48c0-.274.22-.497.493-.497h4.158c.272 0 .495.223.495.497v8.857h-5.146zM24.422 6.822a.737.737 0 00.734-.739V4.738A.743.743 0 0024.392 4h-.002L1.734 5.97A.737.737 0 001 6.71v1.345c0 .406.327.737.758.737h.001l1.209-.084c-.008.028-.019.055-.019.086v13.924c0 .21.17.38.38.38H19.53a.38.38 0 00.378-.38V7.24l4.513-.418z" fill-opacity=".58" fill="#000" fill-rule="evenodd"/></svg>