<svg width="28" height="28" xmlns="http://www.w3.org/2000/svg"><defs><path id="a" d="M0 0h28v28H0z"/></defs><path d="M8.435 14.136H5.867c-.164 0-.297.142-.297.316v2.58c0 .174.133.316.297.316h2.568c.164 0 .297-.142.297-.317v-2.58c0-.173-.133-.315-.297-.315zm8.925.287c0-.69-.553-1.252-1.234-1.252h-4.103c-.681 0-1.235.562-1.235 1.252v8.425c0 .21.168.378.374.378s.373-.169.373-.378v-8.425c0-.272.22-.494.488-.494h4.103c.269 0 .488.222.488.494v8.425c0 .21.166.378.373.378s.373-.169.373-.378v-8.425zm-7.922.122c0-.58-.464-1.05-1.036-1.05H5.9c-.572 0-1.037.47-1.037 1.05v2.394c0 .58.465 1.051 1.037 1.051h2.502c.572 0 1.036-.472 1.036-1.05v-2.395zm15.4-8.812v1.338a.73.73 0 01-.724.734l-4.455.417v15.383c0 .21-.167.379-.374.379H3.298a.376.376 0 01-.373-.379V9.678l-1.175.085H1.75A.733.733 0 011 9.031V7.694a.73.73 0 01.724-.734L24.081 5h.033c.399 0 .723.329.723.733zm-.418 4.678A3.584 3.584 0 0128 13.993a3.585 3.585 0 01-3.58 3.582 3.586 3.586 0 01-3.58-3.582 3.585 3.585 0 013.58-3.582z" fill="#00A862" fill-rule="evenodd"/></svg>