<svg width="28" height="28" xmlns="http://www.w3.org/2000/svg"><g fill="none" fill-rule="evenodd"><g stroke-opacity=".58" stroke="#000" stroke-width=".75"><path d="M5.217 15.058a1.844 1.844 0 01-1.842-1.841c0-1.016.826-1.842 1.842-1.842 1.015 0 1.841.826 1.841 1.842a1.844 1.844 0 01-1.841 1.841zM14.717 15.058a1.844 1.844 0 01-1.842-1.841c0-1.016.826-1.842 1.842-1.842 1.015 0 1.841.826 1.841 1.842a1.844 1.844 0 01-1.841 1.841zM23.717 15.058a1.844 1.844 0 01-1.842-1.841c0-1.016.826-1.842 1.842-1.842 1.015 0 1.841.826 1.841 1.842a1.844 1.844 0 01-1.841 1.841z"/></g><path d="M0 0h28v28H0z"/></g></svg>