<svg width="28" height="28" xmlns="http://www.w3.org/2000/svg"><path d="M18.944 20.118c0-2.966-2.462-5.378-5.488-5.378-3.025 0-5.486 2.412-5.486 5.378a.596.596 0 101.193 0c0-2.308 1.925-4.185 4.293-4.185 2.368 0 4.294 1.877 4.294 4.185a.597.597 0 001.194 0m-8.438-9.74c0 1.696 1.405 3.077 3.132 3.077s3.133-1.381 3.133-3.077c0-1.697-1.406-3.077-3.133-3.077s-3.132 1.38-3.132 3.077M28 7.72v12.22c-.246 1.494-1.433 2.545-2.77 2.545H2.771C1.433 22.486 0 21.39 0 19.764V7.721C0 6.407 1.114 5 2.771 5H25.23C26.568 5 28 6.093 28 7.721m-16.3 2.657c0-1.039.868-1.883 1.938-1.883 1.07 0 1.94.844 1.94 1.883 0 1.038-.87 1.883-1.94 1.883-1.07 0-1.938-.845-1.938-1.883" fill="#00A862" fill-rule="evenodd"/></svg>