<svg width="28" height="28" xmlns="http://www.w3.org/2000/svg"><g fill="none" fill-rule="evenodd"><g fill="#00A862"><path d="M4.217 15.433A2.22 2.22 0 012 13.217 2.22 2.22 0 014.217 11a2.22 2.22 0 012.216 2.217 2.22 2.22 0 01-2.216 2.216zM13.717 15.433a2.22 2.22 0 01-2.217-2.216A2.22 2.22 0 0113.717 11a2.22 2.22 0 012.216 2.217 2.22 2.22 0 01-2.216 2.216zM23.717 15.433a2.22 2.22 0 01-2.217-2.216A2.22 2.22 0 0123.717 11a2.22 2.22 0 012.216 2.217 2.22 2.22 0 01-2.216 2.216z"/></g><path d="M0 0h28v28H0z"/></g></svg>