<svg width="28" height="28" xmlns="http://www.w3.org/2000/svg"><defs><path id="a" d="M0 0h28v28H0z"/></defs><path d="M14.432 16.974c-1.834 0-3.322-1.498-3.322-3.346s1.488-3.346 3.322-3.346c1.835 0 3.322 1.498 3.322 3.346s-1.487 3.346-3.322 3.346M22.5 4.92c-.085-.37-.487-1.421-1.202-1.421H7.331c-.714 0-1.117 1.052-1.202 1.42l-.286 1.244a.369.369 0 00.07.311.362.362 0 00.285.139H7.22L8.383 23.06c.048.807.715 1.44 1.518 1.44h8.826c.803 0 1.47-.633 1.518-1.432l1.353-16.454h.832c.112 0 .217-.05.286-.139a.37.37 0 00.07-.31l-.287-1.244z" fill="#00A862" fill-rule="evenodd"/></svg>