<svg width="48" height="48" xmlns="http://www.w3.org/2000/svg"><path d="M23.46 8.312c.84.486 1.731 1.11 2.41 1.772l-.267.269c-1.339-.143-2.75.035-4.018.055-.142-.143-.427-.358-.162-.538l2.036-1.558zm23.675 16.671c.018.606.074 1.126-.161 1.746-2.447.697-4.053-1.899-6.427-1.507l.269 1.346c2.195.072 3.567 2.182 5.835 2.092-.322.645.144 2.345-1.284 1.665-1.482-.357-2.553-1.665-4.178-1.665-.195.36-.071.86-.106 1.286 1.714.27 2.946 1.721 4.659 1.99-.161.59-.321 1.25-.804 1.61-1.393-.34-2.481-1.595-3.965-1.559l-.264 1.236c1.41.036 2.32 1.286 3.588 1.662.034.52-.43.987-.698 1.452-1.125-.339-1.983-1.307-3.268-1.236-.018-.485.27-1.036.161-1.555-1.443.43-2.411-.914-3.48-1.72-.032-2.64-2.803-4.37-2.95-6.843a3.68 3.68 0 01.271-1.584c.911-2.111.625-4.852-.374-6.82-.303-.519-.841-.927-1.342-1.232.733 1.558 1.627 3.398 1.18 5.313-.051 1.478-.921 2.898-.931 4.323a2.976 2.976 0 00.396 1.53c1.161 2.096 3.25 4.08 2.465 6.71-.216.807-.86 1.431-1.02 2.253 1.359 1.128 2.643 2.399 4.446 2.47.642-.41.285-2.234 1.607-1.393l1.929.967c-.14.518-.573.982-.965 1.338-.732-.357-1.446-.785-2.358-.75-.27.286-.501.607-.48 1.018.642.106 1.23.378 1.767.754-.249.538-.734.875-1.18 1.287l-1.497-.537c-.25.359-.769.735-.587 1.128.338.145.713.341.961.592-.66.716-1.498 1.176-2.303 1.662-.694-2.273-2.98-3.867-2.784-6.496l-.107-.107c-.537.606-.358 1.575-.323 2.36.643 1.647 2.178 2.92 2.41 4.725-.268.465-.874.557-1.339.754.054-3.256-4.873-5.725-1.713-9.018 1.054-1.613 2.82-3.152 2.193-5.372-.642-2.144-2.914-3.472-2.893-5.875l.003-.187c.518-2.506 2.09-5.173.803-7.839-.358-1.072-1.159-2.29-2.248-2.739 1.624 1.863 2.268 4.902 1.339 7.409-.468.997-1.113 2.185-1.177 3.357h-.004c-.035.612.09 1.22.484 1.798 1.233 2.004 3.374 4.207 2.142 6.82-1.392 2.092-3.82 4.221-2.464 6.978.982 1.646 2.5 3.289 2.09 5.312l-1.606.537c1.071-3.775-4.178-5.993-1.98-9.769 1.356-2.022 3.783-3.92 2.409-6.603-.821-1.663-2.518-2.647-2.465-4.725l.059-.349c.553-2.947 2.788-5.736 1.225-8.886-.41-.93-1.231-1.878-2.142-2.415l-.055.055c1.822 1.772 2.376 4.687 1.394 7.03-.459 1.374-1.465 2.744-1.67 4.217a3.47 3.47 0 00.386 2.173c1.16 1.841 3.195 3.795 1.925 6.176-1.337 1.967-3.57 3.88-2.677 6.438.982 2.237 3.033 4.369 1.925 7.143l-1.658.376c1.32-2.704-.66-5.387-1.82-7.732-1.41-3.365 3.033-4.976 3.104-8.052-.017-1.985-2.123-3.112-2.568-4.937-.911-.771-1.856.306-2.945.106-.805.162-2.04-1.11-2.52.269-.572 2.021-3.177 3.507-2.032 5.904 1.09 2.13 3.71 3.688 2.835 6.445-.784 2.575-3.374 5.027-1.768 7.997-.66-.215-1.892.196-1.874-.861-1.018-3.597 3.32-5.692 1.98-9.287-.623-2.202-3.464-3.418-2.839-6.066.463-2.18 2.903-3.704 2.561-6.092a3.531 3.531 0 00-.147-.618c-.91-2.577-2.77-5.154-1.662-8.162.304-.859.912-1.592 1.446-2.36-1.768.948-2.66 2.953-2.623 4.992-.077 2.218 1.558 4.118 1.79 6.148.092.819-.042 1.658-.613 2.547-1.16 1.577-2.676 3.24-1.98 5.317.66 2.094 3.267 3.363 3.106 5.798-.017 2.88-3.356 4.673-2.41 7.893L14.89 46c-.66-2.862 2.374-4.326 2.41-6.974.429-3.046-3.446-4.175-3.214-7.144-.016-2.255 1.964-3.684 2.84-5.58.15-.463.199-.899.179-1.317-.107-2.098-1.993-3.738-1.68-6.096.105-1.736.694-3.257 1.82-4.562-1.553.625-2.194 2.416-2.623 3.92-.744 2.41 1.032 4.578 1.21 6.738.08.954-.153 1.902-1.048 2.872-1.287 1.519-2.59 3.436-1.662 5.477.983 2.253 4.072 4.007 2.732 6.817-.73 1.771-2.481 3.113-2.41 5.206-.463-.197-.944-.394-1.338-.75 0-2.666 3.783-4.331 1.98-7.14-.16.554-.194 1.307-.319 1.933-.625 1.63-1.964 2.933-2.465 4.618-.837-.324-1.713-1.005-2.41-1.72l.965-.593c-.107-.358-.392-.662-.641-.966-.627-.089-1.039.323-1.555.485-.447-.394-.877-.753-1.233-1.236.32-.914 2.823-.158 1.555-1.661-.856-.537-1.715.23-2.465.587l-1.016-1.286c.875-.537 1.747-1.29 2.836-1.074.268.484.286 1.196.803 1.449 1.84-.036 3.142-1.43 4.552-2.523-.983-1.465-1.782-3.488-.91-5.26.7-1.777 2.522-3.273 2.605-5.236a3.498 3.498 0 00-.246-1.423c-.964-2.488-1.304-5.85.536-8.052-1 .27-1.59 1.519-1.93 2.467-1.105 2.43.293 4.68.341 7.008.007.419-.027.838-.128 1.26-.947 1.915-2.48 3.595-2.73 5.798-1.089.697-1.983 1.915-3.536 1.504-.054.411.07 1.038.213 1.504-1.23-.052-2.07.857-3.106 1.287-.553-.178-.696-.893-.91-1.394 1.213-.41 2.088-1.63 3.481-1.61.162-.45-.09-.862-.161-1.29-1.733-.772-4.48 3.81-4.71-.162 1.73-.108 2.837-1.719 4.552-1.88l.051-1.286c-1.946-.197-3.198 1.808-5.143 1.61l-.429-1.716c2.25.14 3.59-1.88 5.734-1.99.284-.374.319-.93.374-1.448-2.34-.305-3.944 2.293-6.427 1.504l-.132-1.691h.004a17.494 17.494 0 00-.033-.405c2.213.861 4.158-.732 6.052-1.555.482-.144 1.233.106 1.449-.43-.019-.412.73-.893.107-1.18-2.769-.377-4.608 2.97-7.447 1.448L0 22.431C.59 14.344 5.141 6.525 12.692 2.677 15.75.926 19.55.033 23.382.001c4.624-.039 9.296 1.177 12.772 3.643 3.375 2.076 6.604 5.496 8.356 8.967 1.676 3.042 2.447 6.456 2.678 10.09-2.929 2.217-4.894-2.09-7.876-1.126.16.466.25.948.59 1.342 2.644-.019 4.464 2.755 7.23 1.662l.003.404zm-33.64-9.96c-1.857-1.217-4.212-.071-5.942.592-.161-1.63-.821-3.114-2.198-4.187-.133-.067-.318-.207-.484-.217-.1-.006-.194.034-.268.161.624 3.847-1.87 6.531-3.638 9.449.588.482 1.534.41 2.248.269 1.874-.752 3.66-2.06 5.891-1.611.66-1.127 1.769-2.22 2.678-3.114.555-.482 1.318-.788 1.713-1.342zm5.678 2.416c-.036.231.018.644.374.485.554-.77 1.536-.16 2.142-.107v-.216c-.332-.524-1.017-.787-1.713-.761-.16.006-.323.03-.48.066a.417.417 0 00-.323.533zm8.73-2.305c-.499-1.11-1.641-1.56-2.678-1.828a13.891 13.891 0 00-1.56-.11c-.097 0-.195-.002-.293 0-1.463.03-2.862.406-3.716 1.614-.122.34-.661.82-.16 1.125 1.124-.072 2.408-.214 3.157.754 0 .86.554 2.004-.374 2.415-.769-.713-1.68.304-2.516-.269-.393-.233-.642.04-.803.38-.233 2.217.926 4.666 2.997 5.9.839.303 1.967.592 2.843.162 2.106-.984 2.979-3.237 3.371-5.313-.053-.395-.034-1.165-.587-1.184-.624.396-1.535.162-2.197 0-.391.127-.41.7-.855.81l-.27-.217c-.233-.983-.377-2.38.535-3.06 1.018-.411 2.214-.59 3.268-.268.196-.34-.107-.607-.162-.911zm-1.075 1.764l-.21.008c-.373.25-1.463.07-1.07.911.679-.538 1.625-.16 2.304.107.25-.125.196-.376.212-.592-.217-.406-.738-.444-1.236-.434zm7.773-7.566c-1.321-.07-2.428.682-3.642 1.022-.106-1.036.679-2.13.858-3.169-1.963.127-3.518 1.311-5.142 2.257-.376-.91-.753-1.825-1.126-2.739l2.142-2.04.055-.27-2.894-.16c-.498-.876-.695-1.93-1.284-2.736-.482.913-.806 1.879-1.288 2.79l-2.89.162v.214l2.194 1.985c-.268 1.02-.518 2.13-1.178 2.9-1.285-.771-2.552-1.61-3.961-2.147-.34-.11-.823-.288-1.126-.055.446.985 1.07 2.044.965 3.118-.59-.108-1.053-.487-1.607-.647-.662-.18-1.448-.535-2.09-.32 1.07 1.503 1.945 3.075 2.248 4.883 3.554-1.72 7.7-2.665 12.002-1.93 2.017.321 3.871 1.145 5.675 1.823.07-1.895 1.266-3.419 2.09-4.94zm6.104 10.309c1.82.482 3.645 2.47 5.572 1.18-1.678-2.79-4.176-5.368-3.482-9.018.073-.25-.087-.502-.319-.537-1.088.446-1.931 1.52-2.362 2.578-.177.625-.282 1.289-.532 1.878-1.304-.68-2.695-1.34-4.284-1.18-.573.071-1.395.11-1.5.699 1.803.965 3.286 2.577 4.39 4.294.77-.126 1.713-.019 2.517.106zm-19.067 2.522l.051.324c.698.465.912 1.255 1.878 1.183.857.051 1.5-.753 1.926-1.397-1.159-.16-2.57.088-3.855-.11zm.964-1.448c.035.143-.088.358.107.43.571-.124 1.606.305 1.925-.375-.223-.25-.586-.364-.968-.364-.381 0-.777.111-1.064.309z" fill="#006440" fill-rule="evenodd"/></svg>