<?xml version="1.0" encoding="UTF-8"?>
<svg width="178px" height="68px" viewBox="0 0 178 68" version="1.1" xmlns="http://www.w3.org/2000/svg" xmlns:xlink="http://www.w3.org/1999/xlink">
    <!-- Generator: Sketch 47 (45396) - http://www.bohemiancoding.com/sketch -->
    <title>udp-iOS-zh</title>
    <desc>Created with Sketch.</desc>
    <defs>
        <path d="M0,28 C0,12.536027 12.5350046,0 28.0006014,0 L141.999399,0 C157.463704,0 170,12.5326269 170,28 L170,28 C170,43.463973 157.464995,56 141.999399,56 L28.0006014,56 C12.5362963,56 0,43.4673731 0,28 L0,28 Z" id="path-1"></path>
        <filter x="-7.1%" y="-14.3%" width="114.1%" height="142.9%" filterUnits="objectBoundingBox" id="filter-2">
            <feOffset dx="0" dy="4" in="SourceAlpha" result="shadowOffsetOuter1"></feOffset>
            <feGaussianBlur stdDeviation="2" in="shadowOffsetOuter1" result="shadowBlurOuter1"></feGaussianBlur>
            <feColorMatrix values="0 0 0 0 0   0 0 0 0 0   0 0 0 0 0  0 0 0 0.104223279 0" type="matrix" in="shadowBlurOuter1" result="shadowMatrixOuter1"></feColorMatrix>
            <feOffset dx="0" dy="0" in="SourceAlpha" result="shadowOffsetOuter2"></feOffset>
            <feGaussianBlur stdDeviation="2" in="shadowOffsetOuter2" result="shadowBlurOuter2"></feGaussianBlur>
            <feColorMatrix values="0 0 0 0 0   0 0 0 0 0   0 0 0 0 0  0 0 0 0.15 0" type="matrix" in="shadowBlurOuter2" result="shadowMatrixOuter2"></feColorMatrix>
            <feMerge>
                <feMergeNode in="shadowMatrixOuter1"></feMergeNode>
                <feMergeNode in="shadowMatrixOuter2"></feMergeNode>
            </feMerge>
        </filter>
    </defs>
    <g id="Page-1" stroke="none" stroke-width="1" fill="none" fill-rule="evenodd">
        <g id="App-page---find-nearby-store" transform="translate(-605.000000, -640.000000)">
            <g id="mobile-pay" transform="translate(609.000000, 80.000000)">
                <g id="button" transform="translate(0.000000, 564.000000)">
                    <g id="udp-iOS-zh">
                        <g id="BG-Copy-3">
                            <use fill="black" fill-opacity="1" filter="url(#filter-2)" xlink:href="#path-1"></use>
                            <use fill="#00AF66" fill-rule="evenodd" xlink:href="#path-1"></use>
                        </g>
                        <g id="Group-18" transform="translate(24.000000, 14.000000)">
                            <text id="下载" font-family="PingFangSC-Semibold, PingFang SC" font-size="12" font-weight="500" letter-spacing="1.32000005" fill-opacity="0.87" fill="#FFFFFF">
                                <tspan x="38" y="29">下载</tspan>
                            </text>
                            <path d="M38,12.36 L42.928,1.08 L44.752,1.08 L49.68,12.36 L47.6,12.36 L46.464,9.656 L41.168,9.656 L40.016,12.36 L38,12.36 Z M41.888,7.912 L45.744,7.912 L43.808,3.432 L41.888,7.912 Z M51.376,14.92 L51.376,3.912 L53.312,3.912 L53.312,5.32 C54.0586667,4.264 55.0133335,3.736 56.176,3.736 C57.2426665,3.736 58.165333,4.13333301 58.944,4.928 C59.722667,5.7226665 60.112,6.7866665 60.112,8.12 L60.112,8.152 C60.112,9.4853335 59.722667,10.5493335 58.944,11.344 C58.1653335,12.1386667 57.242667,12.536 56.176,12.536 C55.0133335,12.536 54.0586667,12.04 53.312,11.048 L53.312,14.92 L51.376,14.92 Z M55.728,10.856 C56.4106665,10.856 56.984,10.608 57.448,10.112 C57.912,9.616 58.144,8.96266675 58.144,8.152 L58.144,8.12 C58.144,7.32 57.9093335,6.6693335 57.44,6.168 C56.9706665,5.6666665 56.4,5.416 55.728,5.416 C55.056,5.416 54.4773335,5.6693335 53.992,6.176 C53.5066667,6.6826665 53.264,7.3306665 53.264,8.12 L53.264,8.152 C53.264,8.94133325 53.5066667,9.58933325 53.992,10.096 C54.4773335,10.6026665 55.056,10.856 55.728,10.856 Z M62.096,14.92 L62.096,3.912 L64.032,3.912 L64.032,5.32 C64.7786667,4.264 65.7333335,3.736 66.896,3.736 C67.9626665,3.736 68.885333,4.13333301 69.664,4.928 C70.442667,5.7226665 70.832,6.7866665 70.832,8.12 L70.832,8.152 C70.832,9.4853335 70.442667,10.5493335 69.664,11.344 C68.8853335,12.1386667 67.962667,12.536 66.896,12.536 C65.7333335,12.536 64.7786667,12.04 64.032,11.048 L64.032,14.92 L62.096,14.92 Z M66.448,10.856 C67.1306665,10.856 67.704,10.608 68.168,10.112 C68.632,9.616 68.864,8.96266675 68.864,8.152 L68.864,8.12 C68.864,7.32 68.6293335,6.6693335 68.16,6.168 C67.6906665,5.6666665 67.12,5.416 66.448,5.416 C65.776,5.416 65.1973335,5.6693335 64.712,6.176 C64.2266667,6.6826665 63.984,7.3306665 63.984,8.12 L63.984,8.152 C63.984,8.94133325 64.2266667,9.58933325 64.712,10.096 C65.1973335,10.6026665 65.776,10.856 66.448,10.856 Z M81.76,12.52 C82.9546665,12.52 83.92,12.2213333 84.656,11.624 C85.392,11.0266665 85.76,10.2106665 85.76,9.176 L85.76,9.144 C85.76,8.248 85.469333,7.552 84.888,7.056 C84.306667,6.56 83.3973335,6.1626665 82.16,5.864 C81.104,5.608 80.3973333,5.36 80.04,5.12 C79.6826667,4.88 79.504,4.5413335 79.504,4.104 L79.504,4.072 C79.504,3.688 79.6693333,3.37066699 80,3.12 C80.3306667,2.86933301 80.7733335,2.744 81.328,2.744 C82.32,2.744 83.3333335,3.128 84.368,3.896 L85.424,2.408 C84.2506665,1.46933301 82.896,1 81.36,1 C80.24,1 79.3226667,1.30133301 78.608,1.904 C77.8933335,2.50666699 77.536,3.288 77.536,4.248 L77.536,4.28 C77.536,4.7813335 77.6133335,5.216 77.768,5.584 C77.9226665,5.952 78.1706665,6.264 78.512,6.52 C78.8533333,6.776 79.2373333,6.984 79.664,7.144 C80.0906667,7.304 80.624,7.464 81.264,7.624 C82.2666665,7.8586665 82.9386665,8.0986665 83.28,8.344 C83.6213335,8.58933325 83.792,8.92 83.792,9.336 L83.792,9.368 C83.792,9.79466675 83.6133335,10.136 83.256,10.392 C82.8986665,10.648 82.416,10.776 81.808,10.776 C80.5706665,10.776 79.392,10.2906667 78.272,9.32 L77.088,10.728 C78.421333,11.9226667 79.9786665,12.52 81.76,12.52 Z M90.688,12.504 C91.3386665,12.504 91.92,12.36 92.432,12.072 L92.432,10.488 C92.048,10.68 91.648,10.776 91.232,10.776 C90.5386667,10.776 90.192,10.424 90.192,9.72 L90.192,5.576 L92.464,5.576 L92.464,3.912 L90.192,3.912 L90.192,1.592 L88.256,1.592 L88.256,3.912 L87.184,3.912 L87.184,5.576 L88.256,5.576 L88.256,10.024 C88.2559998,11.6773335 89.0666665,12.504 90.688,12.504 Z M98.432,12.552 C97.152,12.552 96.0853335,12.128 95.232,11.28 C94.3786667,10.432 93.952,9.4 93.952,8.184 L93.952,8.152 C93.952,6.9253335 94.384,5.88266699 95.248,5.024 C96.112,4.16533301 97.184,3.736 98.464,3.736 C99.744,3.736 100.813333,4.16266699 101.672,5.016 C102.530667,5.8693335 102.96,6.904 102.96,8.12 L102.96,8.152 C102.96,9.368 102.528,10.4053335 101.664,11.264 C100.8,12.1226667 99.7226665,12.552 98.432,12.552 Z M98.464,10.872 C99.232,10.872 99.8506665,10.6106665 100.32,10.088 C100.789333,9.56533325 101.024,8.9306665 101.024,8.184 L101.024,8.152 C101.024,7.3946665 100.778667,6.752 100.288,6.224 C99.7973335,5.696 99.178667,5.432 98.432,5.432 C97.6746665,5.432 97.0613333,5.6906665 96.592,6.208 C96.1226667,6.7253335 95.888,7.36266699 95.888,8.12 L95.888,8.152 C95.888,8.89866675 96.1333333,9.53866675 96.624,10.072 C97.1146667,10.6053333 97.728,10.872 98.464,10.872 Z M104.928,12.36 L106.864,12.36 L106.864,9.144 C106.864,8.056 107.125333,7.2266665 107.648,6.656 C108.170667,6.0853335 108.869333,5.8 109.744,5.8 L109.856,5.8 L109.856,3.752 C108.458667,3.688 107.461333,4.376 106.864,5.816 L106.864,3.912 L104.928,3.912 L104.928,12.36 Z M115.408,12.552 C114.170667,12.552 113.138667,12.144 112.312,11.328 C111.485333,10.512 111.072,9.4586665 111.072,8.168 L111.072,8.136 C111.072,6.9093335 111.461333,5.8693335 112.24,5.016 C113.018667,4.16266699 114.005333,3.736 115.2,3.736 C116.48,3.736 117.474667,4.1706665 118.184,5.04 C118.893333,5.9093335 119.248,6.9893335 119.248,8.28 C119.248,8.38666675 119.237333,8.568 119.216,8.824 L113.008,8.824 C113.114667,9.496 113.386667,10.0213333 113.824,10.4 C114.261333,10.7786665 114.8,10.968 115.44,10.968 C116.272,10.968 117.034667,10.632 117.728,9.96 L118.864,10.968 C117.989333,12.024 116.837333,12.552 115.408,12.552 Z M112.992,7.544 L117.328,7.544 C117.264,6.8933335 117.045333,6.36 116.672,5.944 C116.298667,5.528 115.802667,5.32 115.184,5.32 C114.597333,5.32 114.106667,5.5253335 113.712,5.936 C113.317333,6.3466665 113.077333,6.8826665 112.992,7.544 Z" id="App-Store" fill="#FFFFFF"></path>
                            <path d="M25,20.0610194 C24.5707085,21.4369535 23.8937591,22.812867 22.9691314,24.1888011 C21.5491673,26.3462659 20.1347283,27.4249821 18.7257717,27.4249821 C18.1864055,27.4249821 17.415894,27.2488651 16.4142139,26.896626 C15.4675712,26.5443868 14.6365195,26.3682699 13.9210337,26.3682699 C13.2495779,26.3682699 12.468059,26.5498905 11.5764537,26.9131371 C10.6848484,27.2873912 9.95836605,27.4745154 9.39698492,27.4745154 C7.72384902,27.4745154 6.06724917,26.0490691 4.42713568,23.1981335 C2.80903714,20.3251831 2,17.5568451 2,14.8930366 C2,12.3833327 2.6219129,10.3249662 3.86575736,8.71787509 C5.10960182,7.13279897 6.67263955,6.34027279 8.55491744,6.34027279 C9.34745551,6.34027279 10.3216023,6.50538241 11.4773869,6.8356066 C12.6221641,7.1658308 13.3816684,7.33094042 13.7559225,7.33094042 C14.2512588,7.33094042 15.0382813,7.14381618 16.1170136,6.7695621 C17.2397759,6.39530801 18.191908,6.20818378 18.9734386,6.20818378 C20.2833279,6.20818378 21.4556062,6.56592128 22.4903087,7.28140704 C23.0626973,7.67767607 23.6350773,8.22804146 24.2074659,8.93251974 C23.3378755,9.67002044 22.710459,10.3194516 22.3251974,10.8808327 C21.6097117,11.9155352 21.2519742,13.0547916 21.2519742,14.298636 C21.2519742,15.6635627 21.6317263,16.8908775 22.3912419,17.9806174 C23.1507576,19.0703572 24.0203349,19.7638176 25,20.0610194 Z M18.7918162,0.693467337 C18.7918162,1.36492319 18.6322103,2.11342014 18.3129935,2.93898062 C17.9827693,3.7645411 17.4709295,4.52404535 16.7774587,5.21751615 C16.1830552,5.8119197 15.5886605,6.20818279 14.994257,6.4063173 C14.5869805,6.5273995 14.0146005,6.62096162 13.2770998,6.68700646 C13.3101222,5.04689297 13.7394072,3.6324539 14.5649677,2.44364681 C15.3795207,1.26584719 16.7554342,0.451306396 18.6927495,0 C18.7037569,0.0330224192 18.7175161,0.0935626131 18.7340273,0.181622398 C18.7505385,0.269682182 18.7642976,0.330222376 18.7753051,0.363244795 C18.7753051,0.407274688 18.7780569,0.462311228 18.7835607,0.528356066 C18.7890644,0.594400905 18.7918162,0.649437444 18.7918162,0.693467337 Z" id="" fill="#FFFFFF"></path>
                            <rect id="Rectangle-3" x="0" y="0" width="28" height="28"></rect>
                        </g>
                    </g>
                </g>
            </g>
        </g>
    </g>
</svg>